<?xml version="1.0" encoding="UTF-8" standalone="no"?>
<!DOCTYPE svg PUBLIC "-//W3C//DTD SVG 20010904//EN"
              "http://www.w3.org/TR/2001/REC-SVG-20010904/DTD/svg10.dtd">

<svg xmlns="http://www.w3.org/2000/svg"
     width="2.02778in" height="1.125in"
     viewBox="0 0 146 81">
  <path id="Selection #1"
        fill="none" stroke="black" stroke-width="1"
        d="M 94.00,8.00
           C 94.00,8.00 87.00,7.00 87.00,7.00
             87.00,7.00 53.00,8.00 53.00,8.00
             53.00,8.00 53.00,12.00 53.00,12.00
             54.69,12.06 57.00,11.91 58.40,13.02
             61.06,15.12 60.21,27.94 59.00,31.00
             59.00,31.00 59.00,13.00 59.00,13.00
             51.88,12.92 52.16,12.76 51.00,6.00
             51.00,6.00 94.00,3.00 94.00,3.00
             94.00,3.00 94.00,8.00 94.00,8.00 Z
           M 52.00,4.00
           C 52.00,4.00 51.00,5.00 51.00,5.00
             51.00,5.00 51.00,4.00 51.00,4.00
             51.00,4.00 52.00,4.00 52.00,4.00 Z
           M 51.00,13.00
           C 51.00,13.00 41.00,12.00 41.00,12.00
             41.00,12.00 51.00,13.00 51.00,13.00 Z
           M 58.00,14.00
           C 58.00,14.00 58.00,38.00 58.00,38.00
             58.00,38.00 51.00,38.00 51.00,38.00
             51.00,38.00 51.00,40.00 51.00,40.00
             51.00,40.00 60.00,38.00 60.00,38.00
             59.20,39.20 59.26,39.70 57.71,40.14
             54.70,41.77 44.11,41.23 41.00,40.14
             41.00,40.14 49.00,40.14 49.00,40.14
             49.00,40.14 49.00,38.00 49.00,38.00
             49.00,38.00 42.00,38.00 42.00,38.00
             42.00,38.00 42.00,14.00 42.00,14.00
             42.00,14.00 58.00,14.00 58.00,14.00 Z
           M 43.00,15.00
           C 43.00,15.00 43.00,30.00 43.00,30.00
             43.00,30.00 44.60,35.98 44.60,35.98
             44.60,35.98 57.00,37.00 57.00,37.00
             57.00,37.00 57.00,15.00 57.00,15.00
             57.00,15.00 43.00,15.00 43.00,15.00 Z
           M 95.00,30.00
           C 95.00,30.00 95.00,33.00 95.00,33.00
             95.00,33.00 92.00,32.00 92.00,32.00
             92.00,32.00 95.00,38.00 95.00,38.00
             95.00,38.00 91.00,37.00 91.00,37.00
             91.00,37.00 92.00,41.00 92.00,41.00
             92.00,41.00 80.00,41.00 80.00,41.00
             80.00,41.00 81.00,36.00 81.00,36.00
             81.00,36.00 89.00,37.00 89.00,37.00
             89.00,37.00 88.00,35.00 88.00,35.00
             88.00,35.00 91.00,37.00 91.00,37.00
             91.00,37.00 91.00,24.00 91.00,24.00
             91.00,24.00 80.00,23.00 80.00,23.00
             80.00,23.00 91.00,22.00 91.00,22.00
             92.33,25.25 91.51,28.79 95.00,30.00 Z
           M 95.00,24.00
           C 95.00,24.00 94.00,25.00 94.00,25.00
             94.00,25.00 94.00,24.00 94.00,24.00
             94.00,24.00 95.00,24.00 95.00,24.00 Z
           M 90.00,25.00
           C 90.00,25.00 89.00,26.00 89.00,26.00
             89.00,26.00 89.00,25.00 89.00,25.00
             89.00,25.00 90.00,25.00 90.00,25.00 Z
           M 64.00,30.00
           C 64.00,30.00 63.00,31.00 63.00,31.00
             63.00,31.00 63.00,30.00 63.00,30.00
             63.00,30.00 64.00,30.00 64.00,30.00 Z
           M 80.00,30.00
           C 80.00,30.00 79.00,31.00 79.00,31.00
             79.00,31.00 79.00,30.00 79.00,30.00
             79.00,30.00 80.00,30.00 80.00,30.00 Z
           M 90.00,31.00
           C 90.00,31.00 89.00,32.00 89.00,32.00
             89.00,32.00 89.00,31.00 89.00,31.00
             89.00,31.00 90.00,31.00 90.00,31.00 Z
           M 80.00,32.00
           C 80.00,32.00 79.00,36.00 79.00,36.00
             79.00,36.00 59.00,36.00 59.00,36.00
             59.00,36.00 59.00,32.00 59.00,32.00
             59.00,32.00 80.00,32.00 80.00,32.00 Z
           M 90.00,33.00
           C 90.00,33.00 89.00,34.00 89.00,34.00
             89.00,34.00 89.00,33.00 89.00,33.00
             89.00,33.00 90.00,33.00 90.00,33.00 Z
           M 71.00,38.00
           C 71.00,38.00 66.00,37.00 66.00,37.00
             66.00,37.00 71.00,38.00 71.00,38.00 Z
           M 81.00,38.00
           C 81.00,38.00 81.00,40.00 81.00,40.00
             81.00,40.00 85.00,40.00 85.00,40.00
             85.00,40.00 85.00,38.00 85.00,38.00
             85.00,38.00 81.00,38.00 81.00,38.00 Z
           M 87.00,38.00
           C 87.00,38.00 87.00,40.00 87.00,40.00
             87.00,40.00 91.00,40.00 91.00,40.00
             91.00,40.00 91.00,38.00 91.00,38.00
             91.00,38.00 87.00,38.00 87.00,38.00 Z
           M 9.00,55.00
           C 9.00,55.00 2.00,54.00 2.00,54.00
             2.00,54.00 9.00,55.00 9.00,55.00 Z
           M 43.00,57.00
           C 43.00,57.00 42.00,55.00 42.00,55.00
             42.00,55.00 43.00,64.00 43.00,64.00
             43.13,60.11 42.79,59.41 46.00,57.00
             46.00,57.00 44.00,65.00 44.00,65.00
             39.62,62.10 40.17,58.40 42.00,54.00
             42.00,54.00 43.00,57.00 43.00,57.00 Z
           M 50.00,54.00
           C 49.65,58.70 51.24,62.16 47.00,65.00
             47.00,65.00 48.00,54.00 48.00,54.00
             48.00,54.00 50.00,54.00 50.00,54.00 Z
           M 87.00,56.00
           C 78.14,58.07 79.06,59.01 85.00,64.00
             85.00,64.00 86.00,61.00 86.00,61.00
             86.00,68.09 74.81,64.18 76.65,58.11
             77.14,56.50 77.95,56.07 79.00,55.00
             79.00,55.00 77.00,59.00 77.00,59.00
             77.00,59.00 80.00,54.00 80.00,54.00
             80.00,54.00 87.00,56.00 87.00,56.00 Z
           M 108.00,54.00
           C 108.00,54.00 108.00,65.00 108.00,65.00
             103.32,64.94 101.48,65.39 99.00,61.00
             99.00,61.00 97.00,61.00 97.00,61.00
             95.81,63.10 94.93,64.82 92.04,64.42
             88.84,63.99 87.09,60.13 89.58,58.31
             90.45,57.67 92.89,57.25 94.00,57.00
             94.00,57.00 92.00,57.00 92.00,57.00
             92.00,57.00 92.00,56.00 92.00,56.00
             92.00,56.00 97.00,60.00 97.00,60.00
             97.00,60.00 99.00,60.00 99.00,60.00
             100.94,56.80 101.30,56.73 105.00,57.00
             105.00,57.00 108.00,54.00 108.00,54.00 Z
           M 113.00,54.00
           C 113.00,54.00 113.00,58.00 113.00,58.00
             110.29,59.24 111.36,61.57 112.00,64.00
             112.00,64.00 112.00,62.00 112.00,62.00
             112.00,62.00 113.00,62.00 113.00,62.00
             113.00,62.00 110.00,65.00 110.00,65.00
             110.00,65.00 110.00,54.00 110.00,54.00
             110.00,54.00 113.00,54.00 113.00,54.00 Z
           M 111.00,55.00
           C 111.00,55.00 112.00,56.00 112.00,56.00
             112.00,56.00 112.00,55.00 112.00,55.00
             112.00,55.00 111.00,55.00 111.00,55.00 Z
           M 9.00,60.00
           C 10.70,62.27 5.29,61.96 4.00,62.00
             4.00,62.00 2.00,65.00 2.00,65.00
             2.00,65.00 5.00,59.00 5.00,59.00
             5.00,59.00 8.00,61.00 8.00,61.00
             8.00,61.00 9.00,58.00 9.00,58.00
             9.00,58.00 4.00,56.00 4.00,56.00
             4.00,56.00 11.00,58.00 11.00,58.00
             11.00,58.00 10.00,55.00 10.00,55.00
             11.65,57.78 11.37,57.93 9.00,60.00 Z
           M 19.00,59.00
           C 19.00,59.00 13.00,65.00 13.00,65.00
             13.00,65.00 14.00,57.00 14.00,57.00
             14.00,57.00 17.00,56.00 17.00,56.00
             17.00,56.00 19.00,59.00 19.00,59.00 Z
           M 35.90,64.48
           C 26.34,65.87 32.39,51.27 38.00,59.00
             38.00,59.00 33.00,59.00 33.00,59.00
             33.00,59.00 34.00,63.00 34.00,63.00
             34.00,63.00 39.00,63.00 39.00,63.00
             37.86,63.72 37.37,64.27 35.90,64.48 Z
           M 49.00,64.00
           C 49.00,64.00 49.00,57.00 49.00,57.00
             49.00,57.00 49.00,64.00 49.00,64.00 Z
           M 70.00,60.00
           C 70.00,60.00 63.00,61.00 63.00,61.00
             63.00,61.00 70.00,61.00 70.00,61.00
             70.00,61.00 70.00,64.00 70.00,64.00
             65.64,65.13 65.06,64.87 61.00,63.00
             61.00,63.00 61.00,58.00 61.00,58.00
             65.36,56.30 67.34,55.63 70.00,60.00 Z
           M 125.65,61.71
           C 124.32,58.19 128.19,55.22 134.00,58.00
             134.00,58.00 131.00,64.00 131.00,64.00
             131.00,64.00 134.00,65.00 134.00,65.00
             130.93,68.02 128.69,68.99 126.00,65.00
             126.00,65.00 131.00,66.00 131.00,66.00
             129.50,64.80 126.25,63.28 125.65,61.71 Z
           M 26.00,57.00
           C 33.40,64.54 21.58,68.95 20.00,60.00
             22.25,61.70 22.48,61.55 21.00,64.00
             21.00,64.00 28.00,64.00 28.00,64.00
             28.00,64.00 28.00,59.00 28.00,59.00
             24.21,59.98 22.40,60.44 20.00,57.00
             20.00,57.00 26.00,57.00 26.00,57.00 Z
           M 54.00,62.00
           C 54.00,62.00 60.00,63.00 60.00,63.00
             54.48,66.50 49.58,63.88 53.00,57.00
             53.00,57.00 54.00,62.00 54.00,62.00 Z
           M 105.00,58.00
           C 105.00,58.00 106.00,59.00 106.00,59.00
             106.00,59.00 106.00,58.00 106.00,58.00
             106.00,58.00 105.00,58.00 105.00,58.00 Z
           M 123.54,61.00
           C 123.81,63.33 122.59,63.93 121.00,65.00
             121.00,65.00 122.00,60.00 122.00,60.00
             122.00,60.00 123.00,64.00 123.00,64.00
             123.00,64.00 122.00,58.00 122.00,58.00
             122.00,58.00 117.00,59.00 117.00,59.00
             117.00,59.00 117.00,65.00 117.00,65.00
             113.69,62.69 114.10,60.80 114.00,57.00
             117.28,57.01 123.01,56.47 123.54,61.00 Z
           M 115.00,58.00
           C 115.00,58.00 116.00,63.00 116.00,63.00
             116.00,63.00 117.00,58.00 117.00,58.00
             117.00,58.00 115.00,58.00 115.00,58.00 Z
           M 129.00,58.00
           C 129.00,58.00 128.00,63.00 128.00,63.00
             128.00,63.00 132.00,62.00 132.00,62.00
             132.00,62.00 131.00,58.00 131.00,58.00
             131.00,58.00 129.00,58.00 129.00,58.00 Z
           M 54.00,63.00
           C 54.00,63.00 53.00,59.00 53.00,59.00
             52.24,61.34 52.17,61.37 54.00,63.00 Z
           M 91.00,59.00
           C 92.13,61.71 92.13,61.45 95.00,62.00
             95.00,62.00 91.00,59.00 91.00,59.00 Z
           M 101.00,62.00
           C 103.87,61.45 103.87,61.71 105.00,59.00
             105.00,59.00 101.00,62.00 101.00,62.00 Z
           M 101.00,64.00
           C 105.44,63.63 106.21,63.52 107.00,59.00
             107.00,59.00 101.00,64.00 101.00,64.00 Z
           M 126.00,59.00
           C 126.00,59.00 127.00,60.00 127.00,60.00
             127.00,60.00 127.00,59.00 127.00,59.00
             127.00,59.00 126.00,59.00 126.00,59.00 Z
           M 80.00,63.00
           C 80.00,63.00 80.00,62.00 80.00,62.00
             80.00,62.00 78.00,60.00 78.00,60.00
             78.00,60.00 80.00,63.00 80.00,63.00 Z" />
</svg>
